
<?xml version="1.0" standalone="no"?><!DOCTYPE svg PUBLIC "-//W3C//DTD SVG 1.1//EN" "http://www.w3.org/Graphics/SVG/1.1/DTD/svg11.dtd"><svg class="icon" width="200px" height="200.00px" viewBox="0 0 1024 1024" version="1.1" xmlns="http://www.w3.org/2000/svg"><path fill="#8a8a8a" d="M725.333333 277.333333H393.386667a23.466667 23.466667 0 0 0-23.466667 23.466667 23.466667 23.466667 0 0 0 23.466667 23.466667H725.333333a23.466667 23.466667 0 1 0 0-46.933334z m-426.666666 0a23.893333 23.893333 0 0 0-23.893334 23.466667 23.893333 23.893333 0 0 0 23.893334 23.466667 23.466667 23.466667 0 0 0 23.466666-23.466667A23.466667 23.466667 0 0 0 298.666667 277.333333z m426.666666 140.8H393.386667a23.466667 23.466667 0 0 0-23.466667 23.466667 23.466667 23.466667 0 0 0 23.466667 23.466667H725.333333a23.466667 23.466667 0 0 0 0-46.933334z m-426.666666 0a23.893333 23.893333 0 0 0-23.893334 23.466667 23.893333 23.893333 0 0 0 23.893334 23.466667 23.466667 23.466667 0 0 0 23.466666-23.466667A23.466667 23.466667 0 0 0 298.666667 418.133333z m426.666666 140.8H393.386667a23.466667 23.466667 0 0 0-23.466667 23.466667 23.466667 23.466667 0 0 0 23.466667 23.466667H725.333333a23.466667 23.466667 0 0 0 0-46.933334z m-426.666666 0a23.893333 23.893333 0 0 0-23.893334 23.466667 23.893333 23.893333 0 0 0 23.893334 23.466667 23.466667 23.466667 0 0 0 23.466666-23.466667 23.466667 23.466667 0 0 0-23.466666-23.466667z m426.666666 140.8H393.386667a23.466667 23.466667 0 0 0-23.466667 23.466667 23.466667 23.466667 0 0 0 23.466667 23.466667H725.333333a23.466667 23.466667 0 0 0 0-46.933334z m-426.666666 0a23.893333 23.893333 0 0 0-23.893334 23.466667 23.893333 23.893333 0 0 0 23.893334 23.466667 23.466667 23.466667 0 0 0 23.466666-21.333334 23.466667 23.466667 0 0 0-23.466666-25.6zM820.053333 42.666667H203.946667A118.186667 118.186667 0 0 0 85.333333 160v704A118.186667 118.186667 0 0 0 203.946667 981.333333h616.106666A118.186667 118.186667 0 0 0 938.666667 864V160A118.186667 118.186667 0 0 0 820.053333 42.666667zM144.213333 853.333333V170.666667A68.693333 68.693333 0 0 1 213.333333 101.12h597.333334A68.693333 68.693333 0 0 1 879.786667 170.666667v682.666666A69.12 69.12 0 0 1 810.666667 922.88H213.333333A68.693333 68.693333 0 0 1 144.213333 853.333333z" /></svg>